<svg id="Layer_1" data-name="Layer 1" xmlns="http://www.w3.org/2000/svg" viewBox="0 0 800 270"><defs><style>.cls-1{fill:#0056fe;}.cls-2{fill:#ff9902;}.cls-3{fill:#ff0200;}</style></defs><title>Klem logo RGB</title><path class="cls-1" d="M231.33,236.2a101.2,101.2,0,1,0-202.4,0H96.28c0-.2,0-.4,0-.59a33.85,33.85,0,0,1,67.69.59Z"/><rect class="cls-1" x="231.33" y="33.8" width="67.47" height="202.4"/><rect class="cls-2" x="28.93" y="33.8" width="67.47" height="202.4"/><rect class="cls-1" x="703.6" y="33.8" width="67.47" height="202.4"/><polygon class="cls-3" points="298.8 168.73 231.34 168.73 231.34 236.2 298.8 236.2 366.27 236.2 366.27 168.73 298.8 168.73"/><path class="cls-1" d="M501.32,135H433.61c0-.21,0-.41,0-.61a33.59,33.59,0,0,1,3.81-15c.2-.38.41-.76.62-1.14.13-.21.24-.42.38-.64s.35-.59.55-.89.36-.55.55-.81c.38-.56.77-1.1,1.18-1.63.22-.26.42-.53.63-.79l.67-.8.67-.72a9.36,9.36,0,0,1,.69-.73,34.23,34.23,0,0,1,5.47-4.49A33.84,33.84,0,0,1,501.32,135Z"/><path class="cls-2" d="M568.67,135H501.32a33.85,33.85,0,0,0-57.95-23.77,9.36,9.36,0,0,0-.69.73c-.24.23-.45.48-.67.72l-.67.8c-.22.26-.44.53-.63.79a18.18,18.18,0,0,0-1.18,1.63,8.26,8.26,0,0,0-.55.81c-.2.3-.37.59-.55.89s-.27.43-.38.64c-.21.38-.42.76-.62,1.14a33.59,33.59,0,0,0-3.81,15c0,.2,0,.4,0,.61H366.27q0-1.37,0-2.73c0-.54,0-1.07.05-1.6,0-.29,0-.58.06-.88,0-.7.07-1.38.12-2.07s.13-1.62.2-2.42a2.58,2.58,0,0,1,0-.29c.06-.71.15-1.42.23-2.12.2-1.62.42-3.22.69-4.82q.6-3.51,1.42-7a4.92,4.92,0,0,0,.14-.55c.18-.67.34-1.34.53-2s.41-1.46.62-2.19c0-.15.09-.3.13-.45.44-1.47.92-2.93,1.42-4.38.29-.85.61-1.68.91-2.51.22-.56.43-1.11.66-1.67.65-1.62,1.35-3.24,2.08-4.83l.68-1.44c.23-.46.45-.94.69-1.41s.47-.93.72-1.4.42-.81.65-1.2c.29-.56.59-1.12.92-1.67.49-.89,1-1.76,1.52-2.62s1-1.58,1.48-2.37a3.92,3.92,0,0,1,.33-.5c1.08-1.69,2.23-3.33,3.41-5,.52-.72,1.06-1.42,1.62-2.13l.68-.87c.49-.6,1-1.2,1.48-1.79a2.32,2.32,0,0,1,.21-.25c.52-.63,1.06-1.25,1.61-1.87l.45-.52c.5-.56,1-1.12,1.53-1.67.76-.81,1.54-1.62,2.34-2.41A101.18,101.18,0,0,1,568.67,135Z"/><path class="cls-3" d="M433.61,135H366.27A101.05,101.05,0,0,0,383,190.71a102.89,102.89,0,0,0,13,15.86,101.18,101.18,0,0,0,143.11,0l-47.61-47.63c-.14.14-.29.29-.43.41a33.83,33.83,0,0,1-30.31,8.79,33.76,33.76,0,0,1-27-33.14"/><path class="cls-3" d="M164,33.8a33.85,33.85,0,0,1-67.69.59c0-.19,0-.39,0-.59H28.93a101.12,101.12,0,0,0,47,85.5,101.89,101.89,0,0,0,20,9.79A101.26,101.26,0,0,0,130.13,135,102,102,0,0,0,150.5,133,101.23,101.23,0,0,0,231.33,33.8Z"/><path class="cls-2" d="M703.72,33.8a33.85,33.85,0,0,1-67.7.59V33.8H568.67A101.09,101.09,0,0,0,669.86,135,102.08,102.08,0,0,0,690.24,133,101.23,101.23,0,0,0,771.07,33.8Z"/><rect class="cls-3" x="568.67" y="33.8" width="67.47" height="202.4"/><polygon class="cls-2" points="332.53 168.73 298.8 168.73 298.8 236.2 332.53 236.2 366.27 236.2 366.27 168.73 332.53 168.73"/></svg>